<svg xmlns="http://www.w3.org/2000/svg" width="298.641" height="298.641" viewBox="0 0 298.641 298.641"><defs><style>.a{fill:#fff;}</style></defs><g transform="translate(-5 -5)"><path class="a" d="M93.635,69.1c-.345-.76-.939-.783-1.331-.05L90.217,72.94a21.413,21.413,0,0,1-1.656,2.509l-2.907,3.677a18.822,18.822,0,0,1-2.087,2.154c-1.47,1.244-3.872,3.295-4.387,3.806a17.5,17.5,0,0,0-3.139,3.106,4.472,4.472,0,0,0-.073,2.9c.222.883.5,1.855.747,2.618a3.029,3.029,0,0,1-.534,2.582c-1.032,1.2-2.555,2.99-3.036,3.647-.757,1.005-2.011,3.013-2.011,3.773v2.519a1.507,1.507,0,0,0,1.5,1.51H74.15a4.51,4.51,0,0,0,2.625-1.019l1.9-1.749,3.4-3.776,2.631-2.913a6.14,6.14,0,0,0,1.274-2.6l.488-2.817a14.221,14.221,0,0,1,.879-2.857l1.029-2.28a11.449,11.449,0,0,1,1.633-2.5l.488-.534A12.02,12.02,0,0,0,92.145,82.2l.883-1.9,1.453-3.637a9.468,9.468,0,0,0,.561-2.907,8.55,8.55,0,0,0-.614-2.894Z" transform="translate(153.314 147.244)"/><path class="a" d="M50.7,40.346a1.3,1.3,0,0,0,.922-.743,2.638,2.638,0,0,0,.03-1.759l-.063-.163c-.2-.561-.647-.717-1-.345a2.448,2.448,0,0,0-.544,1.745l.013.186C50.112,39.868,50.4,40.346,50.7,40.346Z" transform="translate(104.388 74.494)"/><path class="a" d="M46.756,27.551a9.183,9.183,0,0,0-.753.71c-.139.179-1.616.627-1.759.763a7.714,7.714,0,0,0-1.072,1.885V31.4c0,.275-.4.66-.873.909-.392.209-.763.441-.747.571s.123.856.209,1.493a.819.819,0,0,0,1.072.753l.919-.315s.421-.182.942-.4a3.9,3.9,0,0,1,1.662-.315,1.353,1.353,0,0,0,1.171-.83l.448-.919s.143-.365.312-.81a3.359,3.359,0,0,1,.992-1.3,1.633,1.633,0,0,0,.557-1.4,2.073,2.073,0,0,0-1.082-1.374l-.265-.133A1.714,1.714,0,0,0,46.756,27.551Z" transform="translate(84.738 51.449)"/><path class="a" d="M46.123,31.165c.046.408-.046,1.888.222,2.157s1.935.946,1.935,1.214-1.128,1.48-1.128,1.613-1.165-.581-1.433.046-.226,1.573.133,1.8-2.114,1.258-2.16,1.48c-.02.123.7.256,1.364.355.587.086.753.431.368.793l-.7.647-.81.9c-.4.445-.239.753.352.684l2.522-.279,3.5-.226,2.031-.232a1.588,1.588,0,0,0,1.294-1.138,7.19,7.19,0,0,1,.521-1.546,1.825,1.825,0,0,0-.262-1.463l-.425-.71a12.294,12.294,0,0,1-.9-1.944l-.252-.743a3.737,3.737,0,0,0-1.248-1.623l-.358-.239a2.848,2.848,0,0,1-1.075-1.633,2.643,2.643,0,0,1,.335-1.749,16.674,16.674,0,0,0,.9-1.417c.216-.388-.05-.916-.577-1.185L50,26.583a5.229,5.229,0,0,1-1.453-1.1,1.047,1.047,0,0,0-1.37.027l-.992.713a2.587,2.587,0,0,0-.942,1.709l0,.093a4.775,4.775,0,0,0,.431,2.031A5.366,5.366,0,0,1,46.123,31.165Z" transform="translate(89.692 46.929)"/><path class="a" d="M43.186,25.7h.74A6.668,6.668,0,0,0,46,25.3l1.357-.544,1.935-.992a.925.925,0,0,0,.418-1.334,4.366,4.366,0,0,0-1.5-1.324l-.226-.113a3.958,3.958,0,0,0-2.031-.322l-1.035.153a4.42,4.42,0,0,1-2.054-.275l-.179-.08a1.486,1.486,0,0,0-1.493.073,1.855,1.855,0,0,0-.508,1.115V23.27a2.8,2.8,0,0,0,.71,1.719A2.913,2.913,0,0,0,43.186,25.7Z" transform="translate(82.724 35.485)"/><path class="a" d="M51.383,18.339a4.988,4.988,0,0,1,1.453.893.67.67,0,0,0,1.005-.136l.561-.627.408-.481a1.046,1.046,0,0,1,1.231,0,.715.715,0,0,0,1.1-.348,1.123,1.123,0,0,0-.428-1.254c-.385-.236-.484-.574-.226-.76s.06-.577-.458-.883l-.209-.123a1.617,1.617,0,0,0-1.739.123,3.054,3.054,0,0,1-1.878.561c-.737-.033-1.593.02-1.669.471-.133.813-.494,1.888-.355,2.024A8.992,8.992,0,0,0,51.383,18.339Z" transform="translate(104.676 21.844)"/><path class="a" d="M54.767,16.154a3.183,3.183,0,0,0,1.815.033l.75-.2c.571-.156,1.49-.455,2.044-.664l1.039-.4c.561-.212.571-.594.033-.843l-.83-.388a3.944,3.944,0,0,0-2.041-.265,23.435,23.435,0,0,0-2.98.657c0,.139-.451,1.394-.494,1.619C54.084,15.812,54.419,16,54.767,16.154Z" transform="translate(113.831 19.443)"/><path class="a" d="M59.713,21.635a16.121,16.121,0,0,1,1.8,1.931c0,.116.471.5.926.846a3.733,3.733,0,0,0,1.948.634h.584a4.922,4.922,0,0,0,1.483-.179c.226-.1,0-.431-.511-.75l-.325-.2a18.335,18.335,0,0,1-1.742-1.261l-.186-.149A4.577,4.577,0,0,1,62.5,20.8l-.08-.236a4.488,4.488,0,0,0-.68-1.317,2.247,2.247,0,0,1-.229-1.38l.063-.859a4.757,4.757,0,0,0-.385-2.047l-.236-.481a1.085,1.085,0,0,0-1.2-.7,1.63,1.63,0,0,0-.856,1.284,3.871,3.871,0,0,1-.956,1.672,1.141,1.141,0,0,0-.279,1.085c.315,1.039,1.483,1.845,1.53,2.293A2.843,2.843,0,0,0,59.713,21.635Z" transform="translate(121.963 20.254)"/><path class="a" d="M62.285,17.774l.989.806.514.362a12.5,12.5,0,0,0,1.36.763,1.062,1.062,0,0,0,1.208-.06,1.361,1.361,0,0,0,.183-1.112,2.079,2.079,0,0,0-.8-1.025l-.607-.365-1.483-1.055s-.328-.275-.73-.607a1.808,1.808,0,0,0-1.477-.4,2.4,2.4,0,0,0-.71.3c-.133.183.242.946.269,1.151S62.285,17.774,62.285,17.774Z" transform="translate(129.143 23.282)"/><path class="a" d="M16.007,48.939a6.7,6.7,0,0,1,.007-1.964,3.367,3.367,0,0,0-.315-1.855l-.448-.869a3.765,3.765,0,0,0-1.467-1.427l-.481-.232a2.662,2.662,0,0,1-1.251-1.506l-.335-1.244a.58.58,0,0,0-1.055-.289l-.163.159a2.918,2.918,0,0,0-.773,1.828v2.114a11.516,11.516,0,0,0,.9,1.878c.272.534.524,1.463.76,2.014.146.345.325.73.481,1.068a21.244,21.244,0,0,0,1.049,1.881l1.178,1.862a3.632,3.632,0,0,1,.468,1.981l-.338,3.242-.4,2.976c-.073.591.113.66.428.149l.481-.776a9.668,9.668,0,0,0,.869-1.948l.654-2.246a8.908,8.908,0,0,0,.305-2.114v-.265a16.572,16.572,0,0,0-.176-2.144Z" transform="translate(10.956 79.529)"/><path class="a" d="M259.906,48.734A149.32,149.32,0,1,0,48.738,259.906,149.32,149.32,0,0,0,259.906,48.734ZM154.32,292.74A138.082,138.082,0,0,1,52.155,247.612a4.31,4.31,0,0,1-.909-1.862l-.378-2.14a4.214,4.214,0,0,0-.906-1.862c-.544-.591-1.281-1.38-1.862-1.938-.431-.411-.81-1.125-.461-1.606s.833-1.049,1.241-1.506a1.532,1.532,0,0,1,1.7-.338l1.1.521a2.066,2.066,0,0,0,1.858-.166l1.294-.916a2.1,2.1,0,0,0,.8-1.7l-.458-6.112-.156-7a3.375,3.375,0,0,1,.664-1.908l2.217-2.655a2.742,2.742,0,0,0,.531-1.895l-1.125-7.748a4.222,4.222,0,0,0-.869-1.872l-3.6-4.048-2.887-3.315a9.116,9.116,0,0,0-1.609-1.4l-3.76-2.422a10.846,10.846,0,0,1-1.646-1.367l-4.808-5.08a9.705,9.705,0,0,1-1.248-1.735l-1.862-3.487a8.6,8.6,0,0,1-.71-2.008l-.514-2.714-1.55-6.5a9.146,9.146,0,0,0-.776-1.991l-3.262-5.847a11.891,11.891,0,0,0-1.241-1.745,7.124,7.124,0,0,1-1.44-2.067c0-.538-1.8-8.448-1.8-8.448l-2.389-8.13a9.415,9.415,0,0,0-.879-1.944l-2.7-4.281a3.409,3.409,0,0,1-.418-1.984,137.1,137.1,0,0,1,6.494-26.28c.2-.557.279-.66.173-.222l-.186.793-.71,4.062a2.521,2.521,0,0,0,.531,1.865l.723.82c.4.441.859.345,1.039-.226l.617-1.988a8.342,8.342,0,0,0,.319-2.1v-2.246a9.147,9.147,0,0,0-.3-2.117l-.438-1.54a3.683,3.683,0,0,1,.1-2.041,138.235,138.235,0,0,1,6.713-14.355,2.224,2.224,0,0,1,1.553-1.052,5.391,5.391,0,0,0,1.961-.664l1.125-.687a9.876,9.876,0,0,0,1.662-1.347,24.465,24.465,0,0,0,2.426-2.787c0-.272,2.558-1.553,2.558-1.954,0-.285,2.1-1.516,3.375-2.24A4.855,4.855,0,0,1,49.1,77.56h.873a2.293,2.293,0,0,0,1.692-.889,15.256,15.256,0,0,0,1.075-1.739,5.72,5.72,0,0,1,2.074-.952.861.861,0,0,1,1.165.74l.129.962a1.094,1.094,0,0,0,1.2.952,34.384,34.384,0,0,0,4.659-.69,5.838,5.838,0,0,0-.312-.949,10.282,10.282,0,0,1-.484-2l-.093-.823a1.339,1.339,0,0,1,.913-1.38l.428-.126a4.794,4.794,0,0,0,1.775-1.092l1.145-1.2a.751.751,0,0,0-.222-1.261l-.226-.116a1.845,1.845,0,0,1-.966-1.493.856.856,0,0,1,1.062-.833l1.175.189a7.238,7.238,0,0,1,2,.7l1.686.952,1.5.876a.958.958,0,0,1,.3,1.417l-.627.879A3.944,3.944,0,0,1,69.37,70.9l-1.935.654A2.382,2.382,0,0,0,66.1,72.934l-.571,1.852a2.04,2.04,0,0,0,.415,1.812l1.692,1.8a2.106,2.106,0,0,0,1.792.561,11.322,11.322,0,0,0,2.92-.856c0-.149-.106-.939-.192-1.626a4,4,0,0,1,.338-2.027l2.276-4.493,1.6-3.149a6.563,6.563,0,0,1,1.3-1.672l1.686-1.477a6.125,6.125,0,0,0,1.274-1.679c.773-1.579,2.233-4.563,2.432-4.758s2.074-1.948,3.182-2.97a3.275,3.275,0,0,0,.886-1.808l.086-1.022a.738.738,0,0,0-.959-.833l-3.159.73c-.577.136-.7-.093-.272-.508l1.649-1.606,2.9-3.059a6.192,6.192,0,0,0,1.118-1.789l.528-1.417c.209-.557-.066-1.009-.6-1.009a3.551,3.551,0,0,0-1.835.654L84,44.56l-4.33,3.255a12.611,12.611,0,0,1-1.832,1.115l-1.291.617A15.521,15.521,0,0,0,74.7,50.639l-4.168,2.933a3.966,3.966,0,0,1-1.958.624h-.879c-.594,0-.763-.372-.388-.83l1.652-1.984a17.327,17.327,0,0,1,1.5-1.543l4.314-3.8,3.64-3.368,4.247-3.5L85.444,37a5.633,5.633,0,0,1,1.908-.886l1.125-.232a14.3,14.3,0,0,1,2.13-.246l.607-.013c.6-.013.863.4.6.936L91.095,38c-.269.534-.03.979.531,1a3.524,3.524,0,0,0,1.749-.438c.4-.259.886-.01,1.068.554l.013.043a2.385,2.385,0,0,1-.305,1.895L94,41.262a14.792,14.792,0,0,1-1.4,1.623l-1.015.992a5.1,5.1,0,0,0-1.1,1.779l-.627,1.991c-.179.564.123.846.677.624l1.493-.6,2.037-.863a8.364,8.364,0,0,1,2.071-.508L97.29,46.2a9.228,9.228,0,0,0,2.084-.465l2.29-.859a10.227,10.227,0,0,0,1.9-.992l3.7-2.555,3.179-1.878a7.144,7.144,0,0,0,1.606-1.387l.813-1.015a.825.825,0,0,0-.3-1.311l-.149-.073a.843.843,0,0,1-.435-1.241,15.482,15.482,0,0,0,1.015-1.745L114,30.617s.163-.362.372-.81.743-.5,1.211-.133l.816.664a1.652,1.652,0,0,0,1.765.123L119.6,29.6l.979-.63a2.275,2.275,0,0,1,1.9-.163l2.462,1.045c.548.232.528.548-.05.7l-1.692.458a3.392,3.392,0,0,0-1.646,1.118,1.187,1.187,0,0,0,.2,1.553.657.657,0,0,1-.166,1.175l-1.015.484a10.253,10.253,0,0,0-1.8,1.155l-2.88,2.409-2.336,2.339a9.342,9.342,0,0,1-1.709,1.281l-2.356,1.3-4.632,3.106a12.07,12.07,0,0,0-1.636,1.384l-.813.859a18.69,18.69,0,0,0-1.357,1.666l-1.268,1.815-1.729,2.419A6.384,6.384,0,0,0,97.184,57L97,57.8a1.519,1.519,0,0,0,.7,1.579l1.487.833a1.546,1.546,0,0,0,1.716-.226l.879-.856a17.878,17.878,0,0,0,1.427-1.613l.378-.5a4.045,4.045,0,0,1,1.672-1.2l1.8-.6a13.272,13.272,0,0,0,1.961-.873l1.092-.621a4.79,4.79,0,0,1,2.014-.534h2.963a4.981,4.981,0,0,0,2.024-.518l2.628-1.453a4.188,4.188,0,0,1,2.014-.431l2.7.229a4.371,4.371,0,0,0,2.031-.418l1.394-.74a8.124,8.124,0,0,0,1.706-1.278l1.125-1.151a8.029,8.029,0,0,1,1.709-1.271l2.87-1.493a4.826,4.826,0,0,0,1.536-1.4l1.261-1.958a11.817,11.817,0,0,1,1.347-1.669l1.506-1.51a2,2,0,0,0,.461-1.8l-.776-2.6-.986-2.757c-.2-.561.09-.843.647-.637l1.822.7,4.264,1.805a13.08,13.08,0,0,1,1.888,1.015l.431.285a6.728,6.728,0,0,0,1.951.833l2.406.544a4.135,4.135,0,0,0,2.061-.159l1.769-.694a5.9,5.9,0,0,1,2.074-.342l1.961.1a4.367,4.367,0,0,0,2.011-.478l2.17-1.228a13.171,13.171,0,0,1,1.961-.876l1.589-.531a8.366,8.366,0,0,1,2.1-.358l1.954-.033a1.332,1.332,0,0,0,1.254-1.078l.116-.7a2.863,2.863,0,0,1,1.078-1.659l.76-.5a3.507,3.507,0,0,1,1.978-.481l2.369.249a2.66,2.66,0,0,0,1.855-.63l1.2-1.141a.764.764,0,0,0-.153-1.284l-1.978-1.141a4.271,4.271,0,0,1-1.417-1.5l-.474-.932c-.265-.534-.01-.859.571-.727l6.252,1.414a12.966,12.966,0,0,1,2.037.674l1.938.869a8.234,8.234,0,0,1,1.785,1.168l.488.441a2.074,2.074,0,0,1,.577,1.779l-.163.786a1.018,1.018,0,0,1-1.268.783l-.74-.2a5.268,5.268,0,0,0-2.1-.033l-3.554.806c-.584.133-.684.544-.219.926l1.437,1.185a9.428,9.428,0,0,0,1.818,1.125l1.2.538a3.353,3.353,0,0,1,1.44,1.417l.976,2.09a5.6,5.6,0,0,0,1.291,1.659l1.3,1.059a8.445,8.445,0,0,1,1.427,1.589l1.241,1.9a12.129,12.129,0,0,0,1.364,1.659l1.7,1.656c.425.418.3.664-.289.548l-2.731-.531a6.8,6.8,0,0,0-2.124-.007l-2.193.411c-.584.11-.611.372-.05.581l1.015.382a1.875,1.875,0,0,1,1.145,1.125c.07.408-.335.853-.916.992l-1.271.3a5.815,5.815,0,0,0-1.895.922l-1.54,1.224a1.714,1.714,0,0,0-.541,1.7l.265.9a.8.8,0,0,1-.776,1.078l-.873.043a2.2,2.2,0,0,0-1.619.979l-.4.694A7.47,7.47,0,0,0,184.543,58l-.076.372a.95.95,0,0,1-1.231.753l-1.573-.468a4.828,4.828,0,0,1-1.785-1.078l-.853-.883c-.421-.425-.275-.84.312-.922l2.114-.3a1.371,1.371,0,0,0,1.128-1.231l.013-.139a1.906,1.906,0,0,0-.876-1.613l-1.3-.747a9.3,9.3,0,0,0-1.981-.806l-1.818-.471a9.363,9.363,0,0,0-2.127-.249l-1.208.023a8.753,8.753,0,0,1-2.12-.262l-1.155-.309a4.47,4.47,0,0,0-2.074.03l-3.866,1.191a4.762,4.762,0,0,0-1.772,1.1l-2.021,2.137a4.043,4.043,0,0,0-.906,1.852l-.073.494a4.57,4.57,0,0,1-.853,1.895l-1.317,1.579a20.956,20.956,0,0,0-1.268,1.739l-.594.939a4.759,4.759,0,0,1-1.54,1.4l-.979.5A3.569,3.569,0,0,0,151.354,66l-.471,1.062a6.425,6.425,0,0,0-.475,2.064l-.066,1.888a1.5,1.5,0,0,0,.992,1.4l.972.3a4.066,4.066,0,0,0,2.064.007l1.712-.518a1.576,1.576,0,0,1,1.639.564,9.845,9.845,0,0,1,.969,1.888l.411,1.138a4.367,4.367,0,0,0,1.224,1.669l.581.441a1.806,1.806,0,0,0,1.805.146,11.242,11.242,0,0,0,2.552-1.646,11.909,11.909,0,0,0-.372-2.585,3.276,3.276,0,0,1,.3-1.991l.551-.959a2.527,2.527,0,0,0,.129-1.935l-.611-1.506a5.95,5.95,0,0,1-.352-2.074c.04-.916.083-2.1.083-2.22a29.182,29.182,0,0,1,1.805-2.7,3.579,3.579,0,0,1,1.633-1.178,1.159,1.159,0,0,1,1.394.7l.183.475a1.974,1.974,0,0,1-.329,1.822l-.4.465a2.892,2.892,0,0,0-.614,1.885l0,.076a2.167,2.167,0,0,0,1.062,1.56l.77.385a5.646,5.646,0,0,0,2.037.5l.4.013a15.942,15.942,0,0,0,2.144-.113l.9-.119a2.537,2.537,0,0,1,1.845.607l.2.189a2.941,2.941,0,0,1,.846,1.457c.037.392-.372.707-.909.707h-3.076a.744.744,0,0,0-.753,1.029l.03.1a8.57,8.57,0,0,1,.319,2.11v1.075a.63.63,0,0,1-.972.621l-.345-.163a1.389,1.389,0,0,0-1.477.083,1.937,1.937,0,0,0-.249,1.586l.226.936a3.347,3.347,0,0,1-.236,2l-.83,1.589a1.059,1.059,0,0,1-1.447.445l-.6-.319a2.223,2.223,0,0,0-1.9,0l-2.276,1.208a2.6,2.6,0,0,1-1.951.093l-2.1-.869-1.6-.534a1.7,1.7,0,0,1-1.078-1.417l-.023-.408c-.027-.6-.027-1.546.01-2.124a1.319,1.319,0,0,0-.979-1.3l-.332-.083a1.1,1.1,0,0,0-1.324.78l-.392,1.487a9.472,9.472,0,0,0-.256,2.117l.027,1.351a1.381,1.381,0,0,1-1.035,1.317l-2.611.6a2.515,2.515,0,0,0-1.516,1.211l-.757,1.556a9.262,9.262,0,0,1-1.178,1.782l-1.068,1.211a4.727,4.727,0,0,1-1.739,1.155L140.928,91.3l-3.57,1.214-3.348.972a.675.675,0,0,0-.362,1.148l2.97,3.706a2.866,2.866,0,0,1,.514,1.908L136.7,103.1a1.23,1.23,0,0,1-1.234,1.025l-1.417-.053a18.3,18.3,0,0,1-2.137-.236l-4.4-.816s-.358-.093-.81-.2a1.455,1.455,0,0,0-1.394.707l-1.185,1.825a2.854,2.854,0,0,0-.335,1.954l.368,1.543a1.589,1.589,0,0,1-.66,1.619l-.329.206a6.2,6.2,0,0,0-1.52,1.467l-.611.906a.956.956,0,0,0,.269,1.4,1.823,1.823,0,0,1,.8,1.583l-.056.952a1.619,1.619,0,0,0,.922,1.493l1.384.577a18.869,18.869,0,0,1,1.918.969l.979.581a3.111,3.111,0,0,0,1.978.312l.863-.2a2.9,2.9,0,0,1,1.954.348l.146.1a1.469,1.469,0,0,0,1.7-.133l1.964-1.769,1.473-1.516a1.778,1.778,0,0,0,.332-1.769,23.567,23.567,0,0,1-.926-2.442,7.289,7.289,0,0,1,1.716-1.311,8.662,8.662,0,0,1,1.948-.866L141.7,111a4.152,4.152,0,0,0,1.729-1.115l.431-.508a3.573,3.573,0,0,0,.72-1.9l.017-.607a1.625,1.625,0,0,1,1.005-1.41,2.851,2.851,0,0,1,1.935.153l1.384.707a2.111,2.111,0,0,0,1.871-.083l1.579-.979,2.874-1.41a1.092,1.092,0,0,1,1.45.488l.385.763a3.656,3.656,0,0,0,1.453,1.44l.551.272a9.383,9.383,0,0,1,1.782,1.181l1.414,1.244,1.891,1.384c.484.348,1.294.873,1.808,1.168l.617.355a1.932,1.932,0,0,1,.9,1.606l-.043,1.082a1.751,1.751,0,0,1-1.062,1.447l-.733.269a15.325,15.325,0,0,0-1.954.9l-1.354.763c-.521.292-.494.717.05.959l.986.425a11.887,11.887,0,0,0,2.047.634l.644.126a1.772,1.772,0,0,0,1.669-.684l1.009-1.47,2.021-2.558L172,114.276a1.575,1.575,0,0,0,.186-1.732l-.4-.694a4.651,4.651,0,0,0-1.477-1.467l-.956-.548a5.837,5.837,0,0,0-2.008-.63l-.076-.007a2.562,2.562,0,0,1-1.676-.989l-.345-.5a11.076,11.076,0,0,0-1.4-1.623l-1.44-1.307a3.057,3.057,0,0,1-.859-1.8l-.076-1.287c-.033-.594.3-.926.747-.74a8.408,8.408,0,0,1,1.649,1.015l3.4,2.757,1.865,1.224a11.892,11.892,0,0,0,1.9.986l2.1.83a1.5,1.5,0,0,1,.936,1.37,7.1,7.1,0,0,0,.222,2.017l.226.82a5.1,5.1,0,0,0,1.035,1.822l.939,1a14.433,14.433,0,0,1,1.341,1.679l.69,1.035a2.906,2.906,0,0,0,1.659,1.085l.571.1a1.033,1.033,0,0,0,1.231-.793,1.369,1.369,0,0,1,1.248-1.039l.206-.013c.6-.033.7-.358.232-.733l-.329-.279a4.251,4.251,0,0,1-1.145-1.45,11.446,11.446,0,0,0-.74-1.483,1.6,1.6,0,0,1,.033-1.516,3.587,3.587,0,0,1,1.457-1.231l.382-.163a5.663,5.663,0,0,1,1.832-.425,2.258,2.258,0,0,1,1.506.843l.212.269a4.8,4.8,0,0,1,.839,1.858,8.016,8.016,0,0,0,.66,1.964l.222.445a14.239,14.239,0,0,0,1.158,1.815l.5.647a4.35,4.35,0,0,0,1.669,1.221l.4.143a3.989,3.989,0,0,1,1.453.9,1.261,1.261,0,0,0,1.414.08l.206-.093a2.369,2.369,0,0,0,1.178-1.165.8.8,0,0,1,.906-.571l.71.133,1.45.3a3.732,3.732,0,0,0,2.711-.7l.169-.136a4.838,4.838,0,0,1,2.512-1.015c.687,0,1.278.352,1.314.776s.07.776.07.776l.265,2.83.485,2.711a5.306,5.306,0,0,1-.129,2.094l-.76,2.475-.564,1.483a1.257,1.257,0,0,1-1.43.757l-2.353-.571a3.131,3.131,0,0,0-1.984.275l-1.7.962a4.876,4.876,0,0,1-2.018.531h-1.954l-5.455-.4-3.176-.355a1.813,1.813,0,0,1-1.341-.687,1.742,1.742,0,0,0-1.344-.654l-.617-.046a7.6,7.6,0,0,0-2.117.206l-1.148.315a1.951,1.951,0,0,0-1.281,1.331l-.07.322a3,3,0,0,0,.345,1.958l.05.073a.773.773,0,0,1-.451,1.224l-.766.239a2.674,2.674,0,0,1-1.941-.256l-.2-.129a6.249,6.249,0,0,0-1.971-.753l-2.319-.388a2.522,2.522,0,0,1-1.589-1.122l-.036-.066a3.427,3.427,0,0,0-1.52-1.334l-1.1-.431a11.488,11.488,0,0,0-2.071-.554l-2.651-.415a5.069,5.069,0,0,1-1.931-.81L158.425,128a1.055,1.055,0,0,1-.209-1.5l1.115-1.453a1.4,1.4,0,0,0,.212-1.5,1.64,1.64,0,0,1,0-1.483.981.981,0,0,0-.531-1.314l-.684-.335a3.633,3.633,0,0,0-2.027-.246l-2.27.488a11.787,11.787,0,0,1-2.134.226h-8.289a7.755,7.755,0,0,0-2.1.352l-4.642,1.6L133.78,123.9a5.511,5.511,0,0,1-2.09.209l-1.968-.259a13.668,13.668,0,0,1-2.094-.478l-.65-.209a1.787,1.787,0,0,0-1.739.475l-2.28,2.565a5.7,5.7,0,0,1-1.706,1.231l-1.317.564a5.6,5.6,0,0,0-1.7,1.238l-1.41,1.613a3.316,3.316,0,0,0-.7,1.888v1.351a2.6,2.6,0,0,1-.84,1.759l-2.233,1.808a4.535,4.535,0,0,1-1.9.823l-.83.119a2.67,2.67,0,0,0-1.662,1.039l-.7,1.039a6.053,6.053,0,0,1-1.5,1.48l-1.42.922a3.4,3.4,0,0,0-1.228,1.613l-.3.969a5.761,5.761,0,0,1-1.052,1.825l-2.446,2.658a8.276,8.276,0,0,0-1.188,1.772l-.488,1.078a2.442,2.442,0,0,0,.046,1.931l.478.922a2.385,2.385,0,0,1,.063,1.895,4.041,4.041,0,0,0-.256,2.008l.113.634a6.018,6.018,0,0,1-.1,2.11l-.591,2.227a13.187,13.187,0,0,1-.747,2.011l-1.085,2.236a2.34,2.34,0,0,0,.056,1.911l.033.07a2.813,2.813,0,0,1,.186,1.971l-.4,1.231A2.13,2.13,0,0,0,96.484,176l4.363,5.18a12.535,12.535,0,0,1,1.2,1.775l2.754,5.11a7.706,7.706,0,0,0,1.3,1.686l3.816,3.554a12.5,12.5,0,0,0,1.7,1.3l3.736,2.286a3.007,3.007,0,0,0,1.968.319l4.188-.952a5.9,5.9,0,0,1,2.1-.03l5.077,1.012a3.386,3.386,0,0,0,2-.309l2.967-1.656a8.9,8.9,0,0,1,2-.753l4.536-.979a2.483,2.483,0,0,1,1.885.461l1.573,1.314a17.3,17.3,0,0,1,1.55,1.487l1.8,2a2.066,2.066,0,0,0,1.775.571l2.927-.624a6.841,6.841,0,0,1,2.114-.06l1.284.206a4.406,4.406,0,0,1,1.878.876l1.251,1.1a2.063,2.063,0,0,1,.6,1.765l-.292,1.483a8.136,8.136,0,0,1-.747,1.991l-1.088,1.9a5.821,5.821,0,0,1-1.254,1.473.923.923,0,0,0-.02,1.357l3.816,4.473a19.887,19.887,0,0,0,1.493,1.546l2.721,2.5a2.807,2.807,0,0,1,.793,1.808v2.877a6.091,6.091,0,0,0,.438,2.061l.564,1.264a10.724,10.724,0,0,0,1.092,1.842l.484.624a2.553,2.553,0,0,1,.395,1.9l-.378,1.5a6.213,6.213,0,0,1-.906,1.911l-.859,1.155a10.276,10.276,0,0,0-1.068,1.855l-1.5,3.58a6.343,6.343,0,0,0-.418,2.074v2.154a3.682,3.682,0,0,0,.664,1.931l3.113,4,2.157,2.422a3.3,3.3,0,0,1,.713,1.885v3.773a2.526,2.526,0,0,0,.846,1.749l1.015.813a5.758,5.758,0,0,1,1.317,1.636l1.735,3.458a5.546,5.546,0,0,1,.478,2.047v1.075a1.076,1.076,0,0,0,1.078,1.078h1.981a9.277,9.277,0,0,0,2.11-.3l3.5-1.019a13.414,13.414,0,0,1,2.114-.4l5.578-.518a6.359,6.359,0,0,0,2.018-.617l2.777-1.493a16.287,16.287,0,0,0,1.812-1.161l3.491-2.651a9.419,9.419,0,0,0,1.513-1.506l2.824-3.673a11.486,11.486,0,0,1,1.48-1.55l2.84-2.389a8.265,8.265,0,0,0,1.4-1.606l1.908-3.023a7.241,7.241,0,0,0,.793-1.974l.637-3.1a3.526,3.526,0,0,1,1.052-1.739l4.264-3.487a14.593,14.593,0,0,1,1.769-1.208l2.973-1.643a3.007,3.007,0,0,0,1.231-1.563l1.039-3.673a10.839,10.839,0,0,0,.322-2.12l.119-4.493a15.993,15.993,0,0,0-.119-2.147c-.159-1.171-.392-2.95-.392-3.418,0-.72.362-6.65.362-7.187a33.346,33.346,0,0,1,2.173-4.45,13.417,13.417,0,0,1,1.208-1.769c1.125-1.351,3.275-3.955,3.8-4.742.72-1.082,5.213-7.187,5.213-7.187l2.937-3.823A9.312,9.312,0,0,0,243,188.359l1.526-3.753a13.927,13.927,0,0,0,.607-2.057l1.6-8.641.826-5.405a.61.61,0,0,0-.863-.73l-3.431,1.122a15.293,15.293,0,0,0-1.974.846l-3.491,1.862a13.539,13.539,0,0,1-1.984.83l-.816.255a2.349,2.349,0,0,1-1.888-.328l-.431-.325a6.92,6.92,0,0,1-1.443-1.556l-1.357-2.134a2.209,2.209,0,0,0-1.656-.909h-.358a2.445,2.445,0,0,1-1.732-.853l-1.178-1.526c-.362-.475-.909-1.271-1.221-1.779l-1.059-1.749a8.008,8.008,0,0,0-1.37-1.626,21.681,21.681,0,0,0-2.781-2.17c-.3-.1-.75-.783-1.1-1.387a11.644,11.644,0,0,1-.846-1.971l-.508-1.576a13.3,13.3,0,0,0-.856-1.971l-.833-1.493a8.636,8.636,0,0,0-1.311-1.686l-2.213-2.1a6.807,6.807,0,0,1-1.234-1.725l-2.509-5.409c-.249-.544.023-.906.614-.82l1.463.219a3.294,3.294,0,0,1,1.759.982l4.088,4.825a8.152,8.152,0,0,0,1.609,1.39l3.109,1.918a2.135,2.135,0,0,1,.916,1.646v2.124a2.445,2.445,0,0,0,.859,1.732l2.784,2.137a7.5,7.5,0,0,1,1.44,1.563l3.368,5.206,3.166,5.186a1.411,1.411,0,0,0,1.579.574l3.7-1.274,5.81-1.984a4.427,4.427,0,0,0,1.689-1.195l3.514-4.417c.368-.468,1.012-1.188,1.433-1.609l4.045-4.078a3.367,3.367,0,0,0,.836-1.845c.182-2.7.647-9.593.647-10.024,0-.388.086-3.122.139-4.675a1.7,1.7,0,0,0-.956-1.506l-1.792-.767a1.186,1.186,0,0,0-1.467.382,1.07,1.07,0,0,1-1.43.3l-.435-.236a7.356,7.356,0,0,1-1.662-1.324l-.153-.173a.642.642,0,0,0-1.155.176l-.206.458a19.32,19.32,0,0,1-.992,1.911l-.305.508a2.783,2.783,0,0,1-1.613,1.135l-.75.149a.675.675,0,0,1-.856-.849l.133-.677a1.045,1.045,0,0,0-.863-1.234l-.494-.083a3.854,3.854,0,0,0-2,.289,1.4,1.4,0,0,1-1.623-.365l-3.527-4.267a3.5,3.5,0,0,1-.687-1.911v-2.154a.674.674,0,0,1,1-.67l.259.1a4.567,4.567,0,0,1,1.636,1.281l.581.786a7.505,7.505,0,0,0,1.523,1.483l.979.67,1.065.694a7.467,7.467,0,0,0,1.961.83l.929.219a2.651,2.651,0,0,0,1.921-.392l.076-.056a4.448,4.448,0,0,1,1.948-.71l5.571-.385a5.924,5.924,0,0,0,2.021-.594l4.038-2.2a1.629,1.629,0,0,1,1.749.2l1.808,1.619a2.6,2.6,0,0,0,1.872.564c1.57-.242,4.324-.717,4.324-1.1a16.844,16.844,0,0,1,2.21-3.282c.358-.468.783-.378.932.2l1.078,4.2a21.07,21.07,0,0,0,.67,2.047l2.074,5.186a17.027,17.027,0,0,0,.942,1.931l3.942,6.763a11.591,11.591,0,0,1,.873,1.958l2.041,6.394a4.477,4.477,0,0,0,1.151,1.722l1.765,1.49c.458.382.74.216.634-.368-.574-3.278-2.237-13.047-1.789-13.492.392-.395-1.4-2.973-2.412-4.35a3.163,3.163,0,0,1-.518-1.935c.315-2.771,1.135-9.995,1.135-10.429,0-.411-1.347-4.559-2-6.524a3.946,3.946,0,0,1-.033-2.061l1.181-4.038c.166-.571.564-.627.883-.123l5.316,8.422c.322.5.644.893.733.869s.259.431.388,1.009a138.069,138.069,0,0,1,3.424,30.65C292.74,230.646,230.646,292.74,154.32,292.74Z"/></g></svg>